<svg xmlns="http://www.w3.org/2000/svg" viewBox="0 0 512 512">
    <defs>
        <linearGradient id="grad" x1="0%" y1="0%" x2="100%" y2="100%">
            <stop offset="0%" style="stop-color:#2d5a9e;stop-opacity:1" />
            <stop offset="100%" style="stop-color:#34495e;stop-opacity:1" />
        </linearGradient>
    </defs>
    <circle cx="256" cy="256" r="256" fill="url(#grad)"/>
    <g fill="#ffffff">
        <!-- Data Science Icon -->
        <path d="M256 96c-88.4 0-160 71.6-160 160s71.6 160 160 160 160-71.6 160-160S344.4 96 256 96zm0 288c-70.7 0-128-57.3-128-128s57.3-128 128-128 128 57.3 128 128-57.3 128-128 128z"/>
        <circle cx="256" cy="256" r="64"/>
        <path d="M256 176c-44.2 0-80 35.8-80 80s35.8 80 80 80 80-35.8 80-80-35.8-80-80-80zm0 128c-26.5 0-48-21.5-48-48s21.5-48 48-48 48 21.5 48 48-21.5 48-48 48z"/>
    </g>
</svg> 